<svg xmlns="http://www.w3.org/2000/svg" width="24" height="24" viewBox="0 0 24 24" fill="none" stroke="#F7F3EA" stroke-width="2" stroke-linecap="round" stroke-linejoin="round"><path d="M11.525 2.295a.53.53 0 0 1 .95 0l2.31 4.679a2.12 2.12 0 0 0 1.595 1.16l5.164.75a.53.53 0 0 1 .294.904l-3.737 3.643a2.12 2.12 0 0 0-.609 1.878l.882 5.143a.53.53 0 0 1-.77.559l-4.618-2.428a2.12 2.12 0 0 0-1.973 0L6.396 21.01a.53.53 0 0 1-.77-.559l.882-5.143a2.12 2.12 0 0 0-.61-1.878l-3.736-3.643a.53.53 0 0 1 .294-.904l5.165-.75a2.12 2.12 0 0 0 1.594-1.16z"/></svg>
